<?xml version="1.0" standalone="no"?>
<!DOCTYPE svg PUBLIC "-//W3C//DTD SVG 20010904//EN"
 "http://www.w3.org/TR/2001/REC-SVG-20010904/DTD/svg10.dtd">
<svg version="1.0" xmlns="http://www.w3.org/2000/svg"
 width="600.000000pt" height="600.000000pt" viewBox="0 0 600.000000 600.000000"
 preserveAspectRatio="xMidYMid meet">
<metadata>
Created by potrace 1.14, written by Peter Selinger 2001-2017
</metadata>
<g transform="translate(0.000000,600.000000) scale(0.100000,-0.100000)"
fill="#000000" stroke="none">
<path d="M3487 5255 c-99 -53 -143 -118 -458 -675 -48 -85 -93 -163 -101 -173
-12 -16 -31 0 -223 191 -276 275 -383 346 -606 401 -191 47 -324 51 -539 15
-105 -18 -133 -29 -170 -69 -23 -24 -25 -34 -23 -109 2 -91 26 -220 44 -242 6
-8 26 -14 44 -14 40 0 34 48 80 -580 19 -261 40 -497 45 -523 6 -27 22 -64 36
-83 35 -46 407 -363 466 -398 44 -26 58 -28 240 -38 290 -17 417 -14 523 11
165 39 311 144 370 265 15 31 32 55 37 54 6 -2 51 -53 102 -113 50 -61 103
-116 118 -122 20 -10 80 -11 284 -3 309 12 402 26 442 67 15 15 124 118 242
228 118 110 236 220 263 245 l48 45 -39 85 c-52 112 -288 403 -330 408 -15 1
-81 -18 -147 -44 -430 -166 -403 -158 -473 -146 -35 6 -66 13 -69 16 -14 14
138 338 234 501 l30 50 114 -3 c63 -1 178 -11 257 -22 79 -11 148 -18 153 -15
5 4 9 30 9 58 0 29 7 108 15 177 8 69 15 164 15 211 l0 85 -142 71 c-163 81
-446 181 -553 194 -38 5 -119 11 -180 14 -104 5 -113 4 -158 -20z m371 -105
c-15 -23 -28 -26 -28 -6 0 8 8 17 18 19 9 3 18 5 20 6 1 0 -3 -8 -10 -19z m76
-11 c-3 -5 -10 -7 -15 -3 -5 3 -7 10 -3 15 3 5 10 7 15 3 5 -3 7 -10 3 -15z
m121 -9 c3 -5 1 -10 -4 -10 -6 0 -11 5 -11 10 0 6 2 10 4 10 3 0 8 -4 11 -10z
m-121 -86 c23 -9 20 -24 -4 -24 -11 0 -20 7 -20 15 0 17 2 18 24 9z m-2304
-104 c0 -5 -4 -10 -10 -10 -5 0 -10 5 -10 10 0 6 5 10 10 10 6 0 10 -4 10 -10z
m1930 -10 c0 -5 -5 -10 -11 -10 -5 0 -7 5 -4 10 3 6 8 10 11 10 2 0 4 -4 4
-10z m-1500 -10 c0 -5 -4 -10 -10 -10 -5 0 -10 5 -10 10 0 6 5 10 10 10 6 0
10 -4 10 -10z m-590 -36 c0 -2 -7 -4 -15 -4 -8 0 -15 4 -15 10 0 5 7 7 15 4 8
-4 15 -8 15 -10z m530 -60 c0 -21 -12 -22 -31 -3 -24 24 -16 43 11 26 11 -6
20 -17 20 -23z m-456 -5 c-6 -11 -24 -2 -24 11 0 5 7 7 15 4 8 -4 12 -10 9
-15z m646 -15 c0 -8 -5 -12 -10 -9 -6 4 -8 11 -5 16 9 14 15 11 15 -7z m40
-24 c0 -5 -4 -10 -10 -10 -5 0 -10 5 -10 10 0 6 5 10 10 10 6 0 10 -4 10 -10z
m1100 -10 c0 -5 -4 -10 -9 -10 -6 0 -13 5 -16 10 -3 6 1 10 9 10 9 0 16 -4 16
-10z m-62 -18 c2 -7 -3 -12 -12 -12 -9 0 -16 7 -16 16 0 17 22 14 28 -4z
m-1663 -13 c-4 -5 1 -12 10 -15 12 -5 13 -10 4 -20 -16 -19 -26 -10 -27 26 0
17 4 28 9 24 5 -3 7 -10 4 -15z m495 -20 c0 -17 -4 -28 -9 -24 -5 3 -9 19 -9
35 1 38 18 28 18 -11z m1273 10 c3 -13 1 -19 -6 -16 -15 5 -22 37 -9 37 5 0
12 -9 15 -21z m-1193 -13 c0 -3 -4 -8 -10 -11 -5 -3 -10 -1 -10 4 0 6 5 11 10
11 6 0 10 -2 10 -4z m70 -6 c0 -5 -4 -10 -10 -10 -5 0 -10 5 -10 10 0 6 5 10
10 10 6 0 10 -4 10 -10z m1050 0 c0 -5 -4 -10 -9 -10 -6 0 -13 5 -16 10 -3 6
1 10 9 10 9 0 16 -4 16 -10z m-1600 -50 c0 -5 -4 -10 -10 -10 -5 0 -10 5 -10
10 0 6 5 10 10 10 6 0 10 -4 10 -10z m1614 -11 c-3 -5 -10 -7 -15 -3 -5 3 -7
10 -3 15 3 5 10 7 15 3 5 -3 7 -10 3 -15z m85 -18 c-13 -29 -39 -43 -39 -21 0
6 5 10 11 10 6 0 9 6 6 13 -4 11 24 40 32 32 2 -2 -3 -18 -10 -34z m-1619 -16
c0 -36 -17 -39 -22 -5 -3 17 -2 32 0 35 10 9 22 -7 22 -30z m1567 19 c-3 -3
-12 -4 -19 -1 -8 3 -5 6 6 6 11 1 17 -2 13 -5z m-1397 -14 c0 -5 -4 -10 -10
-10 -5 0 -10 5 -10 10 0 6 5 10 10 10 6 0 10 -4 10 -10z m1264 -11 c-3 -5 -10
-7 -15 -3 -5 3 -7 10 -3 15 3 5 10 7 15 3 5 -3 7 -10 3 -15z m-1156 -8 c3 -8
-1 -12 -9 -9 -7 2 -15 10 -17 17 -3 8 1 12 9 9 7 -2 15 -10 17 -17z m-418 -12
c0 -5 -7 -9 -15 -9 -15 0 -20 12 -9 23 8 8 24 -1 24 -14z m90 3 c0 -13 -12
-22 -22 -16 -10 6 -1 24 13 24 5 0 9 -4 9 -8z m-165 -11 c3 -5 1 -12 -5 -16
-5 -3 -10 1 -10 9 0 18 6 21 15 7z m100 -41 c3 -5 1 -10 -4 -10 -6 0 -11 5
-11 10 0 6 2 10 4 10 3 0 8 -4 11 -10z m395 -5 c0 -8 -4 -15 -10 -15 -5 0 -10
7 -10 15 0 8 5 15 10 15 6 0 10 -7 10 -15z m-100 -5 c0 -5 -2 -10 -4 -10 -3 0
-8 5 -11 10 -3 6 -1 10 4 10 6 0 11 -4 11 -10z m320 0 c0 -5 -5 -10 -11 -10
-5 0 -7 5 -4 10 3 6 8 10 11 10 2 0 4 -4 4 -10z m1020 -9 c0 -6 -4 -13 -10
-16 -5 -3 -10 1 -10 9 0 9 5 16 10 16 6 0 10 -4 10 -9z m-1430 -71 c0 -5 -4
-10 -10 -10 -5 0 -10 5 -10 10 0 6 5 10 10 10 6 0 10 -4 10 -10z m331 -36 c12
-14 11 -16 -5 -13 -11 2 -21 10 -24 17 -5 17 13 15 29 -4z m-341 -14 c0 -5 -4
-10 -10 -10 -5 0 -10 5 -10 10 0 6 5 10 10 10 6 0 10 -4 10 -10z m-195 -30 c3
-5 1 -10 -4 -10 -6 0 -11 5 -11 10 0 6 2 10 4 10 3 0 8 -4 11 -10z m140 -51
c0 -8 4 -20 8 -26 5 -7 4 -13 -2 -13 -11 0 -31 32 -31 50 0 17 25 6 25 -11z
m217 -154 c0 -5 -5 -11 -11 -13 -6 -2 -11 4 -11 13 0 9 5 15 11 13 6 -2 11 -8
11 -13z m-322 -5 c0 -5 -5 -10 -11 -10 -5 0 -7 5 -4 10 3 6 8 10 11 10 2 0 4
-4 4 -10z m130 -20 c0 -5 -4 -10 -10 -10 -5 0 -10 5 -10 10 0 6 5 10 10 10 6
0 10 -4 10 -10z m425 -79 c48 -32 82 -81 91 -128 6 -30 2 -39 -25 -67 -44 -45
-110 -82 -116 -64 -6 17 -35 245 -35 276 0 19 4 22 23 17 12 -4 40 -19 62 -34z"/>
<path d="M4510 3029 c-30 -5 -75 -19 -100 -32 -39 -19 -50 -32 -83 -97 -41
-83 -65 -183 -101 -432 -13 -88 -26 -162 -30 -165 -7 -8 -9 0 -36 147 -31 167
-34 173 -68 168 -15 -3 -35 -8 -44 -12 -14 -6 -20 2 -32 46 -8 29 -18 71 -21
93 -13 84 -8 79 -110 114 -52 19 -106 42 -119 52 -13 11 -27 19 -30 19 -3 0
-50 -33 -104 -74 -54 -41 -212 -149 -350 -241 -232 -153 -254 -170 -276 -213
-32 -63 -54 -138 -71 -245 -14 -86 -14 -91 9 -161 13 -40 45 -161 70 -271 25
-109 52 -205 58 -212 7 -8 48 -33 92 -55 99 -49 231 -136 270 -177 17 -17 33
-31 38 -31 4 0 45 -23 92 -50 47 -28 97 -50 112 -50 19 0 80 35 185 105 86 57
164 107 173 111 11 4 31 -5 56 -25 21 -17 47 -31 58 -31 20 0 337 154 363 177
15 12 24 12 70 -1 192 -53 371 -60 481 -17 78 30 138 92 171 174 45 112 52
179 52 482 -1 296 -13 427 -57 603 l-21 83 -74 47 c-41 26 -103 68 -139 94
-95 69 -136 80 -294 84 -74 1 -160 -2 -190 -7z m90 -49 c0 -5 -2 -10 -4 -10
-3 0 -8 5 -11 10 -3 6 -1 10 4 10 6 0 11 -4 11 -10z m180 6 c0 -11 -19 -15
-25 -6 -3 5 1 10 9 10 9 0 16 -2 16 -4z m-223 -38 c-3 -8 -6 -5 -6 6 -1 11 2
17 5 13 3 -3 4 -12 1 -19z m83 2 c0 -13 -7 -20 -20 -20 -18 0 -19 3 -10 20 6
11 15 20 20 20 6 0 10 -9 10 -20z m100 10 c-19 -13 -30 -13 -30 0 0 6 10 10
23 10 18 0 19 -2 7 -10z m-172 -53 c2 -10 -3 -17 -12 -17 -10 0 -16 9 -16 21
0 24 23 21 28 -4z m272 -7 c0 -5 -4 -10 -10 -10 -5 0 -10 5 -10 10 0 6 5 10
10 10 6 0 10 -4 10 -10z m-290 -30 c0 -5 -4 -10 -10 -10 -5 0 -10 5 -10 10 0
6 5 10 10 10 6 0 10 -4 10 -10z m85 -10 c3 -5 -1 -10 -9 -10 -9 0 -16 5 -16
10 0 6 4 10 9 10 6 0 13 -4 16 -10z m65 -30 c0 -5 -4 -10 -10 -10 -5 0 -10 5
-10 10 0 6 5 10 10 10 6 0 10 -4 10 -10z m-230 -4 c0 -11 -19 -15 -25 -6 -3 5
1 10 9 10 9 0 16 -2 16 -4z m-815 -75 c3 -5 1 -12 -5 -16 -5 -3 -10 1 -10 9 0
18 6 21 15 7z m4 -26 c20 6 20 5 10 -19 -13 -28 -39 -35 -39 -12 0 8 -3 23 -6
33 -4 13 -3 15 4 4 6 -8 18 -11 31 -6z m871 -91 c0 -8 -5 -12 -10 -9 -6 4 -8
11 -5 16 9 14 15 11 15 -7z m-1010 -9 c0 -8 -4 -15 -10 -15 -5 0 -10 7 -10 15
0 8 5 15 10 15 6 0 10 -7 10 -15z m-190 -65 c0 -17 -41 -33 -53 -21 -8 8 -6
11 6 11 9 0 17 5 17 10 0 6 7 10 15 10 8 0 15 -4 15 -10z m172 -35 c0 -5 -5
-11 -11 -13 -6 -2 -11 4 -11 13 0 9 5 15 11 13 6 -2 11 -8 11 -13z m1308 -218
c0 -157 -2 -176 -19 -191 -17 -16 -20 -14 -66 39 l-48 56 11 67 c20 120 44
185 72 193 52 14 50 20 50 -164z m-1660 143 c0 -11 7 -20 15 -20 8 0 15 -6 15
-14 0 -8 7 -16 15 -20 19 -7 20 -26 0 -26 -8 0 -19 9 -25 20 -6 11 -16 20 -23
20 -25 0 -37 21 -24 41 15 25 27 24 27 -1z m230 -5 c0 -15 -26 -32 -36 -23 -2
3 -2 13 2 22 8 20 34 21 34 1z m120 0 c0 -8 -4 -15 -9 -15 -5 0 -11 -7 -13
-15 -2 -9 -8 -12 -17 -6 -10 7 -10 12 5 30 22 25 34 27 34 6z m-70 -19 c0 -11
-19 -15 -25 -6 -3 5 1 10 9 10 9 0 16 -2 16 -4z m-360 -34 c0 -11 -22 -32 -32
-32 -5 0 -4 9 2 20 11 20 30 28 30 12z m220 -32 c0 -5 -4 -10 -10 -10 -5 0
-10 5 -10 10 0 6 5 10 10 10 6 0 10 -4 10 -10z m10 -51 c0 -6 -4 -7 -10 -4 -5
3 -10 11 -10 16 0 6 5 7 10 4 6 -3 10 -11 10 -16z m-270 -9 c0 -5 -5 -10 -11
-10 -5 0 -7 5 -4 10 3 6 8 10 11 10 2 0 4 -4 4 -10z m190 -24 c0 -11 -19 -15
-25 -6 -3 5 1 10 9 10 9 0 16 -2 16 -4z m128 -27 c-2 -6 -8 -10 -13 -10 -5 0
-11 4 -13 10 -2 6 4 11 13 11 9 0 15 -5 13 -11z m122 -9 c0 -5 -4 -10 -10 -10
-5 0 -10 5 -10 10 0 6 5 10 10 10 6 0 10 -4 10 -10z m-393 -22 c-3 -8 -6 -5
-6 6 -1 11 2 17 5 13 3 -3 4 -12 1 -19z"/>
<path d="M2196 2749 c-79 -19 -104 -38 -136 -103 -36 -72 -62 -191 -85 -376
-19 -154 -24 -184 -31 -177 -3 2 -15 66 -28 142 -13 79 -29 141 -36 145 -7 5
-25 4 -38 -1 -14 -5 -29 -6 -33 -2 -5 5 -13 42 -20 83 -17 114 -17 114 -111
149 -45 18 -90 39 -99 47 -14 12 -27 4 -120 -69 -95 -76 -320 -240 -428 -311
-58 -39 -93 -115 -122 -262 l-22 -111 26 -94 c14 -52 41 -168 61 -259 40 -185
29 -169 161 -245 48 -27 115 -75 148 -105 73 -66 206 -150 237 -150 12 0 34 9
48 21 79 60 246 179 253 179 5 0 24 -13 42 -30 19 -16 40 -30 47 -30 11 0 108
52 260 140 49 28 59 30 90 21 33 -10 137 -33 208 -46 49 -10 161 12 217 43
121 66 159 202 159 567 0 233 -19 444 -52 567 l-17 66 -120 90 c-84 63 -137
95 -175 106 -59 18 -218 20 -284 5z m344 -78 c0 -6 -4 -13 -10 -16 -5 -3 -10
1 -10 9 0 9 5 16 10 16 6 0 10 -4 10 -9z m-42 -62 c-2 -6 -8 -10 -13 -10 -5 0
-11 4 -13 10 -2 6 4 11 13 11 9 0 15 -5 13 -11z m86 -110 c-10 -16 -24 -9 -24
12 0 18 2 19 15 9 8 -7 12 -16 9 -21z m-144 -39 c0 -5 -4 -10 -10 -10 -5 0
-10 5 -10 10 0 6 5 10 10 10 6 0 10 -4 10 -10z m54 -36 c4 -10 1 -14 -6 -12
-15 5 -23 28 -10 28 5 0 13 -7 16 -16z m84 -60 c2 -1 1 -12 -3 -23 -8 -27 -25
-27 -25 -1 0 11 -5 19 -11 18 -6 -2 -14 3 -16 10 -4 10 2 11 24 6 15 -4 30 -8
31 -10z m-23 -54 c3 -5 -1 -10 -9 -10 -9 0 -16 5 -16 10 0 6 4 10 9 10 6 0 13
-4 16 -10z m65 6 c0 -3 -4 -8 -10 -11 -5 -3 -10 -1 -10 4 0 6 5 11 10 11 6 0
10 -2 10 -4z m-1250 -16 c0 -5 -4 -10 -10 -10 -5 0 -10 5 -10 10 0 6 5 10 10
10 6 0 10 -4 10 -10z m1220 -20 c0 -5 -4 -10 -10 -10 -5 0 -10 5 -10 10 0 6 5
10 10 10 6 0 10 -4 10 -10z m-66 -31 c-3 -5 -10 -7 -15 -3 -5 3 -7 10 -3 15 3
5 10 7 15 3 5 -3 7 -10 3 -15z m106 11 c0 -5 -4 -10 -10 -10 -5 0 -10 5 -10
10 0 6 5 10 10 10 6 0 10 -4 10 -10z m-175 -105 c10 -124 3 -211 -17 -231 -14
-15 -20 -11 -57 36 -28 35 -40 59 -36 73 2 12 9 47 15 77 24 124 30 134 77
139 7 1 14 -32 18 -94z m-1405 55 c0 -5 -4 -10 -10 -10 -5 0 -10 5 -10 10 0 6
5 10 10 10 6 0 10 -4 10 -10z m500 -20 c0 -5 -4 -10 -10 -10 -5 0 -10 5 -10
10 0 6 5 10 10 10 6 0 10 -4 10 -10z m1090 -35 c0 -8 -4 -15 -9 -15 -5 0 -11
7 -15 15 -3 9 0 15 9 15 8 0 15 -7 15 -15z"/>
</g>
</svg>
